<svg xmlns="http://www.w3.org/2000/svg" viewBox="0 0 32 40" x="0px" y="0px"><title>video analytics - edad</title><g data-name="Capa 2"><path d="M2.55,6.25A.76.76,0,0,0,3.3,5.5V3.25H5.55a.75.75,0,1,0,0-1.5h-3a.75.75,0,0,0-.75.75v3A.75.75,0,0,0,2.55,6.25Z"/><path d="M29.55,1.75h-3a.75.75,0,0,0,0,1.5H28.8V5.5a.75.75,0,0,0,1.5,0v-3A.76.76,0,0,0,29.55,1.75Z"/><path d="M6.3,29.5a.76.76,0,0,0-.75-.75H3.3V26.5a.75.75,0,0,0-1.5,0v3a.75.75,0,0,0,.75.75h3A.76.76,0,0,0,6.3,29.5Z"/><path d="M29.55,25.75a.75.75,0,0,0-.75.75v2.25H26.55a.75.75,0,1,0,0,1.5h3a.76.76,0,0,0,.75-.75v-3A.76.76,0,0,0,29.55,25.75Z"/><path d="M12,16.71a.76.76,0,1,0,.76.76A.76.76,0,0,0,12,16.71Zm-.24.76a.24.24,0,0,1,.48,0C12.24,17.73,11.76,17.73,11.76,17.47Z"/><path d="M19.14,15.6l.56-.28a1.29,1.29,0,0,1,1.15,0l.56.28a.67.67,0,0,0,.33.08.74.74,0,0,0,.67-.41.75.75,0,0,0-.33-1L21.52,14A2.8,2.8,0,0,0,19,14l-.56.28a.76.76,0,0,0-.34,1A.75.75,0,0,0,19.14,15.6Z"/><path d="M20.27,16.73a.76.76,0,0,0-.76.76.77.77,0,0,0,.76.77.78.78,0,0,0,.77-.77A.77.77,0,0,0,20.27,16.73Zm-.23.76a.23.23,0,0,1,.23-.23.23.23,0,0,1,.24.23C20.51,17.76,20,17.76,20,17.49Z"/><path d="M4.32,15.77a3.67,3.67,0,0,0,2.79,3.79,14.71,14.71,0,0,0,2.2,5.53A7.9,7.9,0,0,0,15.91,29h0a7.53,7.53,0,0,0,5.6-2.32,13.63,13.63,0,0,0,3.45-7,.44.44,0,0,1,.05-.18.79.79,0,0,1,.18-.08,3.71,3.71,0,0,0,.46-6.9,9,9,0,0,0-.58-3.38A9.63,9.63,0,0,0,6.44,12.59,3.57,3.57,0,0,0,4.32,15.77ZM14.59,4.53a7.16,7.16,0,0,1,1.46-.15A8.27,8.27,0,0,1,23.7,9.71a8.78,8.78,0,0,1,.46,2,5.26,5.26,0,0,1-3.79-2.08l-1.2-1.6a.78.78,0,0,0-.55-.3A.75.75,0,0,0,18,8a12.82,12.82,0,0,1-9.13,3.78H8A8.1,8.1,0,0,1,14.59,4.53Zm-7.48,9.4a1.47,1.47,0,0,0,.7-.68h1.1a14.29,14.29,0,0,0,9.56-3.63l.7.93a6.74,6.74,0,0,0,5.12,2.68,1.32,1.32,0,0,0,.74.71,2.22,2.22,0,0,1-.23,4.12,1.66,1.66,0,0,0-1.28,1.41,12.09,12.09,0,0,1-3.06,6.21A6,6,0,0,1,16,27.53a6.49,6.49,0,0,1-5.38-3.24,13.27,13.27,0,0,1-2-5,1.32,1.32,0,0,0-1.06-1.18,2.17,2.17,0,0,1-1.71-2.29A2.08,2.08,0,0,1,7.11,13.93Z"/><path d="M14.42,23.26l.57.28a2.8,2.8,0,0,0,2.48,0l.56-.28a.75.75,0,0,0,.34-1,.76.76,0,0,0-1-.34l-.56.28a1.27,1.27,0,0,1-1.14,0l-.56-.28a.76.76,0,0,0-1,.34A.75.75,0,0,0,14.42,23.26Z"/><path d="M10.87,15.58l.56-.28a1.27,1.27,0,0,1,1.14,0l.56.28a.84.84,0,0,0,.34.08.74.74,0,0,0,.67-.42.73.73,0,0,0-.34-1L13.24,14a2.77,2.77,0,0,0-2.48,0l-.56.28a.73.73,0,0,0-.34,1A.75.75,0,0,0,10.87,15.58Z"/><path d="M16.12,20.75a.75.75,0,0,0,.75-.75V20a.72.72,0,0,0-.75-.72.77.77,0,0,0-.75.77A.76.76,0,0,0,16.12,20.75Z"/></g><text x="0" y="47" fill="#000000" font-size="5px" font-weight="bold" font-family="'Helvetica Neue', Helvetica, Arial-Unicode, Arial, Sans-serif">Created by bambaleq</text><text x="0" y="52" fill="#000000" font-size="5px" font-weight="bold" font-family="'Helvetica Neue', Helvetica, Arial-Unicode, Arial, Sans-serif">from the Noun Project</text></svg>