<svg xmlns="http://www.w3.org/2000/svg" xmlns:xlink="http://www.w3.org/1999/xlink" version="1.1" x="0px" y="0px" viewBox="0 0 100 125" enable-background="new 0 0 100 100" xml:space="preserve"><path d="M92.4,88.9c-1.1-0.4-3.2-1.7-6.2-3.8c-0.7-0.5-1.1-0.8-1.4-1c-0.6-0.5-1-0.8-2.5-1.5c0.1-0.6,0.1-1.1,0.1-1.6  c0-1.7-14.1-10.2-18.4-12.7c-4-2.5-11.6-6.6-13.7-7.8c0.1,0,0.2-0.1,0.2-0.2c0-0.1,0-0.2-0.1-0.3c-2.3-1.9-3.5-3.6-4-5.3  c0,0,0,0,0,0c0,0,0,0,0,0c-0.9-2.6,0-5.1,0-5.1c0,0,0-0.1,0-0.1c0,0,0,0,0.1,0c1.5-1.7,3.3-3.8,3.8-4.5c0.5,0.4,1.4,0.9,2.8,1.8  c1.9,1.1,11.3,6.1,13.4,6.1c0.1,0,0.2,0,0.3,0c0.3-0.1,0.6-0.4,1-0.7l3.1,1c0.1,0,0.2,0.1,0.3,0.1c0.1,0,0.3,0,0.4-0.1  c0.5,0.8,1.2,1.4,1.9,1.6c0.3,0.1,0.5,0.1,0.8,0.1c0.7,0,1.4-0.2,2.2-0.7c1-0.6,1.5-1.3,1.6-2c0.2-1-0.4-1.9-1-2.8  c-1.2-1.7-4-1-4.1-1c0,0,0,0,0,0c-0.1,0-0.1-0.1-0.2-0.1l-2.5-1c0-0.2,0-0.4-0.1-0.6c-0.2-0.4-1.3-1-3.4-2.1  c-1.5-0.8-3.3-1.7-4.7-2.6c-2.4-1.6-4.7-3.4-6.7-5.5c-2.4-2.5-5.4-5.5-6.6-6.1c-0.7-0.4-1.9-0.9-2.7-1.3c-0.4-0.2-2.2-1.2-2.9-1.5  l0-0.2c0.3-0.1,0.5-0.1,0.7-0.2c4.2-1.3,6.3-5.2,5.9-10.8c0.6-1.1-0.6-4.2-1.7-5.4c-0.1-0.1-2.5-2.6-6.7-2.9c0,0-1.3,0-1.6,0  c-0.1,0-3.5,0.2-6,2.8c-1.7,1.8-2.4,4.3-2.3,7.4c0,1.7,0.6,3.4,1.8,5c0.4,0.6,0.9,1.1,1.4,1.6c0.2,0.2,0.5,0.3,0.7,0.3L36,26  l-0.3,0.7L32,26.6c-0.2,0-5.7-0.6-8-1c-2.9-0.6-6.3-1.4-6.8-1.8c-0.2-0.2-0.8-1.9-1.3-3.3c-1.2-3.3-2-5.4-2.7-5.8  c-0.2-0.1-0.6-0.2-1.1-0.2l-0.6-2.4c-0.1-0.2-0.2-0.4-0.3-0.5c0,0,0-0.1,0.1-0.1c0-0.1,1-2.5-0.6-3.9C9.9,6.9,9,6.2,8.1,6.3  C7.3,6.3,6.6,6.8,5.9,7.7c-0.7,0.9-1,1.8-0.9,2.7c0.1,0.9,0.7,1.7,1.6,2.4c-0.1,0.2-0.2,0.4-0.1,0.7l0.7,2c-0.6,0.3-1,0.7-1.2,1.1  c-0.7,1.8,2.7,10.3,4,12.1c1.3,1.7,13.9,8.3,15.4,9.1l1.3,8.6c-0.2,0.5-1.6,3.4-2.2,4.3c-2.3,3.7-2.6,4.8-2.9,6  c-0.1,0.5-0.2,0.9-0.5,1.5c-1,0.4-7.4,3-11.2,6.2c-3.3,2.8-1,11.8,0.2,16.6c0.3,1.2,0.6,2.2,0.6,2.5c0,1.4,0.9,2.2,1.1,2.4  c0.1,0.3,0.3,0.6,0.5,0.9c-0.1,0.3-0.2,0.4-0.5,0.6c-0.1,0.1-0.2,0.2-0.3,0.3c-0.8,0.7-1.6,1.2-2.4,1.6C8,89.9,7,90.5,6.9,91.6  c-0.1,0.6,0.5,1.3,1.3,1.7c0.4,0.2,1,0.4,1.9,0.4c1.3,0,3-0.5,5.1-2.4c0,0,0.9-0.6,2.4-1.5c1.3-0.8,1-2.4,0.6-3.3  c0.3-0.3,0.6-0.6,0.9-1c0.7-1,1-9,1-11c1.5-0.7,12.7-5.5,16.8-4.9c6.6,1.1,21.6,9.8,21.8,9.9c12.9,6.7,17.5,8.3,17.5,8.3  c0.1,0,0.1,0,0.2,0c0.9-0.2,1.6-0.5,2.3-0.8c0.2,0.1,0.8,0.5,1.7,1c0.2,0.5,0.2,0.9,0.2,0.9c0,1,0.3,1.7,0.9,2.3  c0.9,0.9,2.4,1.2,4.7,1.1c1,0,1.9,0.1,2.9,0.2c0.8,0.1,1.6,0.2,2.4,0.2c0.7,0,1.4-0.1,2.1-0.4c0.9-0.4,1.4-0.9,1.4-1.5  C95,90,93.6,89.3,92.4,88.9z M49.6,60.1c-1.8,0.6-8.1,2.7-15,3.7c-0.3-0.7-1.5-3.3-1.7-5.1c-0.1-0.9,0.1-2.2,0.5-3.7  c0.3,0.1,0.5,0.1,0.8,0.2c1.9,0.4,3.9,0.6,5.8,0.6c3,0,5.2-0.4,5.9-0.6C46.4,56.7,47.6,58.3,49.6,60.1z M31.6,64.1  c-0.3-0.3-1.3-1.6-1.5-5.6c-0.1-1.5,0-3,0.4-4.3c0.7,0.2,1.5,0.5,2.3,0.7c-0.4,1.5-0.6,2.9-0.5,3.9c0.2,1.8,1.2,4.2,1.7,5.2  C33.2,64,32.4,64.1,31.6,64.1z M27.1,47.3c1.2,0.4,5.5,2,8.6,2.3c2,0.2,5,0.4,7.4,0.4c1.1,0,2,0,2.6-0.1c-0.2,0.9-0.6,2.7,0,4.7  c-0.8,0.2-2.9,0.6-5.7,0.6c-1.9,0-3.9-0.2-5.7-0.5c-5.5-1.1-8.4-3.1-9.2-3.7C25.5,50.2,26.6,48.5,27.1,47.3z M76.6,49.7  c0.7,1,1,1.6,0.9,2.3c-0.1,0.5-0.5,1-1.4,1.6c-0.9,0.6-1.7,0.8-2.5,0.6c-0.7-0.2-1.3-0.7-1.7-1.5c0.6-1,1.1-2.5,1.3-3.3  c0-0.1,0-0.3,0-0.4C74,48.8,75.8,48.5,76.6,49.7z M72.8,49.1c-0.3,0.8-0.8,2.3-1.4,3.3c-0.1,0.1-0.2,0.1-0.3,0.1l-2.8-1  c0.8-0.9,1.6-2.2,1.9-3.2c0.1-0.2,0.1-0.3,0.1-0.4l2.3,0.9C72.7,48.9,72.8,49,72.8,49.1z M54.9,37c2.1,2.1,4.4,4,6.9,5.6  c1.5,0.9,3.2,1.8,4.8,2.7c1.4,0.7,3,1.6,3.2,1.8c0,0.1,0.2,0.3-0.1,1.1c-0.5,1.6-2.1,3.7-3,4c-0.8,0.3-7.3-2.8-13.1-6  c-1.6-1-2.5-1.6-3-1.9c0,0,0,0-0.1-0.1c-0.1-0.1-0.3-0.2-0.3-0.2c0,0,0,0,0,0l0,0c-0.2-0.1-0.3-0.1-0.4,0.1  c-0.1,0.1-0.1,0.2,0.1,0.4l0,0c0,0,0,0,0.1,0.1c-0.6,0.7-2.3,2.8-3.8,4.4C46,49,46,49.1,46,49.2c-0.3,0.1-1,0.2-2.9,0.2  c-2.4,0-5.4-0.2-7.4-0.4c0,0-0.1,0-0.1,0c1.1-1.4,4.9-6.1,8-11.9l1-1.9c0.2-0.4,1.5-3.5,1.5-5.2c0.7,0.3,1.6,0.8,2.2,1  C49.6,31.6,52.7,34.7,54.9,37z M45.6,29.7c0.1,1.2-1,4.1-1.5,5.2l-1,1.9c-3.4,6.3-7.5,11.3-8.2,12.1c-0.8-0.1-1.7-0.3-2.6-0.6  c2.7-3.5,5.4-7.3,7.4-10.9c0,0,0,0,0,0c0.7-1.3,1.3-2.5,1.7-3.7c0.1-0.2,0.3-0.6,0.5-1c0.8-1.8,1.5-3.4,1.4-4.2  C43.9,28.8,44.9,29.3,45.6,29.7z M43.6,26.8c-0.3,0.1-0.6,0.2-0.9,0.2c-0.1,0-0.2,0.1-0.2,0.1c0,0.1-0.1,0.2,0,0.2l0.2,0.8  c0,0,0,0,0,0l0,0.2c0.2,0.5-0.9,2.9-1.4,4c-0.2,0.5-0.4,0.9-0.5,1.1c-0.3,0.9-0.8,1.9-1.3,3c-1.1-4-3-8.7-3.3-9.4l0.4-1  c0-0.1,0-0.2-0.1-0.3L36,25.2c0,0,0.1,0,0.1-0.1l0.5-0.4c0.2-0.1,0.2-0.3,0.2-0.5c-0.1-0.2-0.2-0.3-0.4-0.3  c-0.8-0.1-1.4-0.5-1.8-1.4c-0.3-0.7-0.3-1.5,0.2-2.1c0.2-0.3,0.4-0.4,0.7-0.4c0.7,0,1.4,0.9,1.7,1.2c0.1,0.1,0.2,0.1,0.3,0.1  c0.1,0,0.2-0.1,0.3-0.2l0.6-1.5c0.7-1.4,2.1-2.3,2.9-2.8c0.4-0.2,0.9-0.4,1.4-0.5c0.6-0.1,1.6-0.2,2.8-0.2c1.3,0,2.6,0.2,3.7,0.5  C49.4,22,47.5,25.6,43.6,26.8z M33.7,23.1c-1.1-1.5-1.6-3.1-1.7-4.7c-0.1-3,0.6-5.3,2.1-7c2.2-2.4,5.5-2.6,5.5-2.6  c0.1,0,0.5,0,0.8,0c0.4,0,0.7,0,0.7,0c3.9,0.3,6.2,2.7,6.3,2.7c1.1,1.1,2,3.7,1.7,4.5c-1.2-0.3-2.5-0.5-3.9-0.5  c-1.2,0-2.3,0.1-2.9,0.3c-0.6,0.1-1.1,0.3-1.5,0.5c-0.8,0.4-2.3,1.4-3.2,3l-0.4,1c-0.4-0.4-1.1-1.1-1.8-1.1c-0.4,0-0.8,0.2-1.2,0.6  c-0.6,0.7-0.7,1.8-0.3,2.7c0.4,1,1.1,1.5,1.9,1.7l-0.2,0.1c-0.2,0.2-0.6,0.1-0.8,0C34.5,24.1,34.1,23.7,33.7,23.1z M35.7,27.4  c0.4,1,2.3,6,3.4,9.9c-0.6,1.2-1.4,2.3-2.1,3.5c-1.8-7.4-3.3-11.9-4.3-13.5L35.7,27.4z M5.6,10.3C5.5,9.6,5.8,8.8,6.4,8.1  C7,7.3,7.6,6.9,8.1,6.9c0.7-0.1,1.3,0.4,2.2,1.2c1.3,1.1,0.4,3.2,0.4,3.3c0,0.1,0,0.1,0,0.2c0,0-0.1,0-0.1,0c-0.8,0.2-2.3,0.5-3.4,1  C6.3,11.9,5.8,11.1,5.6,10.3z M7.1,13.3c0-0.1,0-0.2,0.1-0.3c1-0.4,2.6-0.8,3.5-1c0.1,0,0.3,0,0.3,0.2l0.6,2.3  c-1.1,0-2.5,0.3-3.5,0.7c-0.1,0-0.2,0.1-0.3,0.1L7.1,13.3z M10.6,28.4c-1.5-1.9-4.5-10.1-3.9-11.5c0.2-0.4,0.8-0.8,1.7-1.2  c1.8-0.6,4.1-0.8,4.6-0.5c0.5,0.3,1.7,3.4,2.4,5.5c0.9,2.4,1.2,3.3,1.5,3.5c0.9,0.7,7,1.9,7,1.9c2.2,0.4,7.4,1,8,1  c0.6,0.4,2.2,4.3,4.6,14.2c0,0,0,0.1,0,0.1c-1.5,2.3-3.2,4.5-4.8,6.7c-2-0.6-3.8-1.2-4.4-1.4c0,0,0-0.1,0-0.1c0,0,0,0,0,0  c0,0,0,0,0-0.1c0,0,0,0,0-0.1c0,0,0,0,0,0L26,37.6c0,0,0,0,0,0c0,0,0,0,0-0.1c0,0,0,0,0-0.1c0,0,0,0,0,0c0,0,0,0-0.1,0c0,0,0,0,0,0  C22,35.3,11.7,29.8,10.6,28.4z M22.2,56.9c0.3-1.1,0.6-2.2,2.6-5.5c0.6,0.5,2.2,1.6,5,2.6c-0.3,1.3-0.5,2.7-0.4,4.2l-7.7,0  C22,57.7,22.1,57.3,22.2,56.9z M17.3,89.3c-1.5,0.9-2.4,1.5-2.5,1.5c-3.3,3-5.5,2.3-6.3,1.9c-0.7-0.4-1-0.9-1-1.1  c0.1-0.8,0.9-1.2,1.9-1.8c0.8-0.4,1.7-0.9,2.5-1.7c0.1-0.1,0.2-0.2,0.3-0.3c0.3-0.2,0.4-0.4,0.6-0.6c0.4,0.3,1,0.6,1.6,0.7  c0.2,0,0.4,0,0.6,0c1,0,1.9-0.4,2.8-1C18,87.6,18.2,88.7,17.3,89.3z M76.4,87.2C75.7,87,71,85.3,59,79c-0.6-0.4-15.2-8.9-22-10  c-4.5-0.7-16.8,4.8-17.4,5c-0.1,0-0.2,0.2-0.2,0.3c-0.1,3.9-0.5,10.2-0.9,10.9c-1.1,1.6-2.7,2.4-4.2,2.1c-1-0.2-1.8-0.8-2.1-1.7  c0-0.1-0.1-0.1-0.1-0.2c0,0-1-0.7-1-2c0-0.3-0.2-1.1-0.6-2.6c-1.1-4.3-3.5-13.4-0.4-16c3.8-3.3,10.4-5.9,11.1-6.1l8.1,0  c0.3,4.7,1.8,5.8,1.8,5.9c0,0,0,0,0,0c0,0,0.1,0.1,0.2,0.1c0,0,0,0,0,0c7.8-0.7,15.6-3.2,18-4c1,0.5,9.8,5.3,14.2,8  c8.6,5.1,17.9,11.2,18.1,12.2C81.8,82.6,81.8,85.9,76.4,87.2z M93.4,91.9c-1.2,0.5-2.7,0.3-4.2,0.1c-1-0.1-2-0.3-3-0.2  c-2.1,0.1-3.5-0.2-4.2-0.9c-0.5-0.4-0.7-1-0.7-1.9c0,0-0.1-0.5-0.3-1.1c0-0.1-0.1-0.1-0.1-0.2c-0.7-0.4-1.2-0.7-1.5-0.9  c1.8-1,2.5-2.4,2.8-3.6c1.3,0.6,1.6,0.9,2.2,1.4c0.3,0.3,0.7,0.6,1.4,1.1c2.1,1.5,4.9,3.4,6.4,3.9c1.6,0.6,2.2,1.2,2.2,1.6  C94.4,91.3,94,91.6,93.4,91.9z"/><text x="0" y="115" fill="#000000" font-size="5px" font-weight="bold" font-family="'Helvetica Neue', Helvetica, Arial-Unicode, Arial, Sans-serif">Created by parkjisun</text><text x="0" y="120" fill="#000000" font-size="5px" font-weight="bold" font-family="'Helvetica Neue', Helvetica, Arial-Unicode, Arial, Sans-serif">from the Noun Project</text></svg>