<svg xmlns="http://www.w3.org/2000/svg" data-name="Layer 1" viewBox="0 0 100 125" x="0px" y="0px"><title>Artboard 27</title><path d="M18,56H28V82H72V56H82V28.88L65.76,24.82a8.1,8.1,0,0,0-8-6.82H42.28a8.1,8.1,0,0,0-8,6.82L18,28.88ZM36,74V66H64v8H36ZM74,48H64V58H61.19l-7-11.86,2.47-3.69,6.68-10L74,35.12ZM42.28,26H57.72a.16.16,0,0,1,.14.24L50,38,42.14,26.24A.16.16,0,0,1,42.28,26ZM26,35.12l10.67-2.67,1.16,1.74L51.9,58H36V48H26Z"/><text x="0" y="115" fill="#000000" font-size="5px" font-weight="bold" font-family="'Helvetica Neue', Helvetica, Arial-Unicode, Arial, Sans-serif">Created by Gregor Cresnar</text><text x="0" y="120" fill="#000000" font-size="5px" font-weight="bold" font-family="'Helvetica Neue', Helvetica, Arial-Unicode, Arial, Sans-serif">from the Noun Project</text></svg>