<svg xmlns="http://www.w3.org/2000/svg" xmlns:xlink="http://www.w3.org/1999/xlink" version="1.1" x="0px" y="0px" viewBox="0 0 100 125" enable-background="new 0 0 100 100" xml:space="preserve"><g><path d="M48.6,17.25c6.23,0,11.9,2.45,16.13,6.46L80.48,7.96H66.75V5.02h18.76v18.76H82.57V10.05L66.75,25.87   c3.49,4.21,5.59,9.65,5.59,15.59c0,6.67-2.65,12.72-6.939,17.101c-3.971,4.06-9.34,6.68-15.311,7.049V81.57h10.65v2.939H50.09   v10.24h-2.94V84.51H36.97V81.57h10.18V65.609c-5.97-0.369-11.34-3-15.31-7.049C27.55,54.18,24.9,48.13,24.9,41.46   s2.65-12.72,6.94-17.1c4.3-4.39,10.23-7.1,16.78-7.1L48.6,17.25z M63.29,26.41c-3.761-3.84-8.95-6.21-14.69-6.21   c-5.74,0-10.93,2.37-14.69,6.21c-3.76,3.84-6.09,9.16-6.09,15.04c0,5.88,2.33,11.2,6.09,15.04c3.76,3.84,8.95,6.21,14.69,6.21   c5.74,0,10.929-2.37,14.69-6.21c3.76-3.84,6.09-9.16,6.09-15.04C69.38,35.57,67.05,30.25,63.29,26.41z"/></g><text x="0" y="115" fill="#000000" font-size="5px" font-weight="bold" font-family="'Helvetica Neue', Helvetica, Arial-Unicode, Arial, Sans-serif">Created by Katya Prokofyeva</text><text x="0" y="120" fill="#000000" font-size="5px" font-weight="bold" font-family="'Helvetica Neue', Helvetica, Arial-Unicode, Arial, Sans-serif">from the Noun Project</text></svg>