<svg xmlns="http://www.w3.org/2000/svg" xmlns:xlink="http://www.w3.org/1999/xlink" xml:space="preserve" version="1.1" style="shape-rendering:geometricPrecision;text-rendering:geometricPrecision;image-rendering:optimizeQuality;" viewBox="0 0 333 416.25" x="0px" y="0px" fill-rule="evenodd" clip-rule="evenodd"><defs><style type="text/css">
   
    .fil0 {fill:black}
   
  </style></defs><g><path class="fil0" d="M98 7l137 0c8,0 14,7 14,14l0 291c0,8 -6,14 -14,14l-137 0c-7,0 -14,-6 -14,-14l0 -291c0,-7 7,-14 14,-14zm69 285c6,0 11,5 11,11 0,6 -5,11 -11,11 -7,0 -12,-5 -12,-11 0,-6 5,-11 12,-11zm-20 -275l39 0c3,0 6,2 6,5l0 0c0,3 -3,5 -6,5l-39 0c-3,0 -5,-2 -5,-5l0 0c0,-3 2,-5 5,-5zm-54 18l147 0 0 247 -147 0 0 -247z"/></g><text x="0" y="348" fill="#000000" font-size="5px" font-weight="bold" font-family="'Helvetica Neue', Helvetica, Arial-Unicode, Arial, Sans-serif">Created by Aa Nafiz</text><text x="0" y="353" fill="#000000" font-size="5px" font-weight="bold" font-family="'Helvetica Neue', Helvetica, Arial-Unicode, Arial, Sans-serif">from the Noun Project</text></svg>