<svg xmlns="http://www.w3.org/2000/svg" xmlns:xlink="http://www.w3.org/1999/xlink" viewBox="0 0 100 125" version="1.1" x="0px" y="0px"><title>Profile 0.3</title><desc>Created with Sketch.</desc><g stroke="none" stroke-width="1" fill="none" fill-rule="evenodd"><g fill-rule="nonzero" fill="#000000"><path d="M67.5,69 C67.5,69.8284271 66.8284271,70.5 66,70.5 C65.1715729,70.5 64.5,69.8284271 64.5,69 C64.5,60.9918711 58.0081289,54.5 50,54.5 C41.9918711,54.5 35.5,60.9918711 35.5,69 C35.5,69.8284271 34.8284271,70.5 34,70.5 C33.1715729,70.5 32.5,69.8284271 32.5,69 C32.5,59.3350169 40.3350169,51.5 50,51.5 C59.6649831,51.5 67.5,59.3350169 67.5,69 Z M50,50.5 C44.2010101,50.5 39.5,45.7989899 39.5,40 C39.5,34.2010101 44.2010101,29.5 50,29.5 C55.7989899,29.5 60.5,34.2010101 60.5,40 C60.5,45.7989899 55.7989899,50.5 50,50.5 Z M50,47.5 C54.1421356,47.5 57.5,44.1421356 57.5,40 C57.5,35.8578644 54.1421356,32.5 50,32.5 C45.8578644,32.5 42.5,35.8578644 42.5,40 C42.5,44.1421356 45.8578644,47.5 50,47.5 Z"/></g></g><text x="0" y="115" fill="#000000" font-size="5px" font-weight="bold" font-family="'Helvetica Neue', Helvetica, Arial-Unicode, Arial, Sans-serif">Created by Landan Lloyd</text><text x="0" y="120" fill="#000000" font-size="5px" font-weight="bold" font-family="'Helvetica Neue', Helvetica, Arial-Unicode, Arial, Sans-serif">from the Noun Project</text></svg>